<svg xmlns="http://www.w3.org/2000/svg" width="646" height="167" viewBox="0 0 646 167" fill="none"><path d="M90.1341 124.806L90.1341 107.047L145.806 51.2348L145.806 124.806L90.1341 124.806ZM71.7469 103.246L71.7469 124.806L18.6949 124.806L71.7464 55.9848L71.7469 103.246Z" fill="white" stroke="white" stroke-width="18.3872"></path><path d="M567 29L640 130.5H567V29Z" fill="white"></path><path d="M169.12 133.846V27.5464L249.303 99.7877V27.5464H254.954V133.846H169.12Z" fill="white"></path><path d="M270.11 27.6992H347.545V54.5796H297.907V68.0199H339.144V93.5258H297.907V107.119H347.545V133.999H270.11V27.6992Z" fill="white"></path><path d="M403.174 64.0489L393.399 27.6992H456.477L427.916 133.999H421.96L406.076 74.8927L390.192 133.999H384.236L355.675 27.6992H361.479L387.137 123.461L403.174 64.0489ZM449.146 33.3502H400.73L408.978 64.0489L425.014 123.461L449.146 33.3502Z" fill="white"></path><path d="M553.954 133.999H453.763L503.859 25.4082L553.954 133.999ZM462.622 128.348H545.096L503.859 38.8484L462.622 128.348Z" fill="white"></path><path d="M645.628 133.999H563.918V27.6992H605.307C614.166 27.6992 621.395 29.2774 626.995 32.4338C632.493 35.4884 636.77 39.663 639.824 44.9576C642.879 50.2523 644.406 56.1069 644.406 62.5216C644.406 70.4635 641.963 77.5909 637.075 83.9038C632.188 90.1148 626.028 94.2385 618.595 96.2749L645.628 133.999ZM573.54 33.3502L615.082 91.3876C621.904 89.9621 627.555 86.5511 632.035 81.1546C636.515 75.7582 638.755 69.5472 638.755 62.5216C638.755 56.9215 637.381 51.8305 634.632 47.2486C631.882 42.6667 628.013 39.1539 623.024 36.7102C618.544 34.4702 612.689 33.3502 605.46 33.3502H573.54ZM569.569 37.0157V91.8457H608.82L569.569 37.0157ZM569.569 128.348H634.937L612.638 97.344L607.904 97.4968H569.569V128.348Z" fill="white"></path><path d="M502.5 29L549.698 132.5H455.302L502.5 29Z" fill="white"></path><path d="M425.5 130L398.22 32.5L452.78 32.5L425.5 130Z" fill="white"></path></svg>